<?xml version="1.0" encoding="utf-8"?>
<!-- Generator: Adobe Illustrator 24.0.1, SVG Export Plug-In . SVG Version: 6.00 Build 0)  -->
<!DOCTYPE svg PUBLIC "-//W3C//DTD SVG 1.1//EN" "http://www.w3.org/Graphics/SVG/1.1/DTD/svg11.dtd" [
	<!ENTITY ns_extend "http://ns.adobe.com/Extensibility/1.0/">
	<!ENTITY ns_ai "http://ns.adobe.com/AdobeIllustrator/10.0/">
	<!ENTITY ns_graphs "http://ns.adobe.com/Graphs/1.0/">
	<!ENTITY ns_vars "http://ns.adobe.com/Variables/1.0/">
	<!ENTITY ns_imrep "http://ns.adobe.com/ImageReplacement/1.0/">
	<!ENTITY ns_sfw "http://ns.adobe.com/SaveForWeb/1.0/">
	<!ENTITY ns_custom "http://ns.adobe.com/GenericCustomNamespace/1.0/">
	<!ENTITY ns_adobe_xpath "http://ns.adobe.com/XPath/1.0/">
]>
<svg version="1.1" id="Layer_1" xmlns:x="&ns_extend;" xmlns:i="&ns_ai;" xmlns:graph="&ns_graphs;"
	 xmlns="http://www.w3.org/2000/svg" xmlns:xlink="http://www.w3.org/1999/xlink" x="0px" y="0px" viewBox="0 0 104 99"
	 style="enable-background:new 0 0 104 99;" xml:space="preserve">
<style type="text/css">
	.st0{fill:#D15443;}
	.st1{fill:#FF5347;}
	.st2{fill:#FFFFFF;}
</style>
<metadata>
	<sfw  xmlns="&ns_sfw;">
		<slices></slices>
		<sliceSourceBounds  bottomLeftOrigin="true" height="67" width="82" x="11" y="16"></sliceSourceBounds>
	</sfw>
</metadata>
<path class="st0" d="M21,16l5,10H11L21,16z"/>
<path class="st1" d="M21,16c0,4.4,0,8.8,0.1,13.1c0,7.7-0.2,15.5,0.2,23.2c0.1,2.2,0.3,4.4,0.5,6.6c0.2,1.4,0.3,3.3,1,4.5
	C25,67.3,52.6,83,57.1,83c1.9,0,7.7-2.7,14.1-6.1c5-2.7,10.3-5.9,14.3-8.5c3.1-2.1,5.3-3.8,5.9-4.8c0.6-1,1-3.8,1.3-7.4l0.3-5.4V16
	H21z"/>
<g>
	<path class="st2" d="M44.3,45.3l5.3,0.3c-0.2,2.3-1.1,4.1-2.5,5.3c-1.4,1.2-3.2,1.8-5.3,1.8c-2.5,0-4.6-0.8-6.2-2.5
		c-1.6-1.7-2.3-4-2.3-7c0-2.9,0.7-5.3,2.2-7.1c1.5-1.8,3.5-2.7,6.2-2.7c2.5,0,4.4,0.7,5.7,2.1c1.3,1.4,2.1,3.2,2.3,5.5l-5.4,0.3
		c0-1.3-0.2-2.2-0.7-2.7c-0.5-0.6-1-0.8-1.7-0.8c-1.8,0-2.7,1.8-2.7,5.5c0,2,0.2,3.4,0.7,4.2c0.5,0.7,1.1,1.1,2,1.1
		C43.3,48.4,44.1,47.4,44.3,45.3z"/>
	<path class="st2" d="M65.1,41.3v3.5H60V50h-3.5v-5.3h-5.1v-3.5h5.1V36H60v5.3H65.1z"/>
	<path class="st2" d="M81.5,41.3v3.5h-5.1V50H73v-5.3h-5.1v-3.5H73V36h3.5v5.3H81.5z"/>
</g>
</svg>
