<?xml version="1.0" encoding="utf-8"?>
<!-- Generator: Adobe Illustrator 24.0.1, SVG Export Plug-In . SVG Version: 6.00 Build 0)  -->
<!DOCTYPE svg PUBLIC "-//W3C//DTD SVG 1.1//EN" "http://www.w3.org/Graphics/SVG/1.1/DTD/svg11.dtd" [
	<!ENTITY ns_extend "http://ns.adobe.com/Extensibility/1.0/">
	<!ENTITY ns_ai "http://ns.adobe.com/AdobeIllustrator/10.0/">
	<!ENTITY ns_graphs "http://ns.adobe.com/Graphs/1.0/">
	<!ENTITY ns_vars "http://ns.adobe.com/Variables/1.0/">
	<!ENTITY ns_imrep "http://ns.adobe.com/ImageReplacement/1.0/">
	<!ENTITY ns_sfw "http://ns.adobe.com/SaveForWeb/1.0/">
	<!ENTITY ns_custom "http://ns.adobe.com/GenericCustomNamespace/1.0/">
	<!ENTITY ns_adobe_xpath "http://ns.adobe.com/XPath/1.0/">
]>
<svg version="1.1" id="Layer_1" xmlns:x="&ns_extend;" xmlns:i="&ns_ai;" xmlns:graph="&ns_graphs;"
	 xmlns="http://www.w3.org/2000/svg" xmlns:xlink="http://www.w3.org/1999/xlink" x="0px" y="0px" viewBox="0 0 104 99"
	 style="enable-background:new 0 0 104 99;" xml:space="preserve">
<style type="text/css">
	.st0{fill:#D15443;}
	.st1{fill:#FF5347;}
	.st2{fill:#FFFFFF;}
</style>
<metadata>
	<sfw  xmlns="&ns_sfw;">
		<slices></slices>
		<sliceSourceBounds  bottomLeftOrigin="true" height="67" width="82" x="11" y="16"></sliceSourceBounds>
	</sfw>
</metadata>
<path class="st0" d="M21,16l5,10H11L21,16z"/>
<path class="st1" d="M21,16c0,4.4,0,8.8,0.1,13.1c0,7.7-0.2,15.5,0.2,23.2c0.1,2.2,0.3,4.4,0.5,6.6c0.2,1.4,0.3,3.3,1,4.5
	C25,67.3,52.6,83,57.1,83c1.9,0,7.7-2.7,14.1-6.1c5-2.7,10.3-5.9,14.3-8.5c3.1-2.1,5.3-3.8,5.9-4.8c0.6-1,1-3.8,1.3-7.4l0.3-5.4V16
	H21z"/>
<g>
	<path class="st2" d="M61.1,48.3l7.5,0.4c-0.4,3.3-1.6,5.8-3.6,7.5c-2.1,1.7-4.6,2.6-7.6,2.6c-3.6,0-6.5-1.2-8.8-3.6
		c-2.2-2.4-3.3-5.7-3.3-9.9c0-4.2,1.1-7.6,3.2-10.1c2.1-2.6,5.1-3.8,8.8-3.8c3.5,0,6.2,1,8.1,2.9s3,4.5,3.2,7.8l-7.6,0.4
		c0-1.8-0.3-3.1-1-3.9c-0.7-0.8-1.5-1.2-2.4-1.2c-2.6,0-3.9,2.6-3.9,7.8c0,2.9,0.3,4.9,1,5.9c0.7,1,1.6,1.6,2.8,1.6
		C59.6,52.7,60.8,51.3,61.1,48.3z"/>
</g>
</svg>
