<?xml version="1.0" encoding="utf-8"?>
<!-- Generator: Adobe Illustrator 24.0.1, SVG Export Plug-In . SVG Version: 6.00 Build 0)  -->
<!DOCTYPE svg PUBLIC "-//W3C//DTD SVG 1.1//EN" "http://www.w3.org/Graphics/SVG/1.1/DTD/svg11.dtd" [
	<!ENTITY ns_extend "http://ns.adobe.com/Extensibility/1.0/">
	<!ENTITY ns_ai "http://ns.adobe.com/AdobeIllustrator/10.0/">
	<!ENTITY ns_graphs "http://ns.adobe.com/Graphs/1.0/">
	<!ENTITY ns_vars "http://ns.adobe.com/Variables/1.0/">
	<!ENTITY ns_imrep "http://ns.adobe.com/ImageReplacement/1.0/">
	<!ENTITY ns_sfw "http://ns.adobe.com/SaveForWeb/1.0/">
	<!ENTITY ns_custom "http://ns.adobe.com/GenericCustomNamespace/1.0/">
	<!ENTITY ns_adobe_xpath "http://ns.adobe.com/XPath/1.0/">
]>
<svg version="1.1" id="Layer_1" xmlns:x="&ns_extend;" xmlns:i="&ns_ai;" xmlns:graph="&ns_graphs;"
	 xmlns="http://www.w3.org/2000/svg" xmlns:xlink="http://www.w3.org/1999/xlink" x="0px" y="0px" viewBox="0 0 104 99"
	 style="enable-background:new 0 0 104 99;" xml:space="preserve">
<style type="text/css">
	.st0{fill:#D15443;}
	.st1{fill:#FF5347;}
	.st2{fill:#FFFFFF;}
</style>
<metadata>
	<sfw  xmlns="&ns_sfw;">
		<slices></slices>
		<sliceSourceBounds  bottomLeftOrigin="true" height="67" width="82" x="11" y="16"></sliceSourceBounds>
	</sfw>
</metadata>
<path class="st0" d="M21,16l5,10H11L21,16z"/>
<path class="st1" d="M21,16c0,4.4,0,8.8,0.1,13.1c0,7.7-0.2,15.5,0.2,23.2c0.1,2.2,0.3,4.4,0.5,6.6c0.2,1.4,0.3,3.3,1,4.5
	C25,67.3,52.6,83,57.1,83c1.9,0,7.7-2.7,14.1-6.1c5-2.7,10.3-5.9,14.3-8.5c3.1-2.1,5.3-3.8,5.9-4.8c0.6-1,1-3.8,1.3-7.4l0.3-5.4V16
	H21z"/>
<path class="st2" d="M59.7,26.9c2.1,4.8-7.6,7.7-8.5,11.7c-0.8,3.6,5.8,7.9,5.8,7.9c-1-1.5-1.7-2.7-2.7-5.1
	C52.5,37.3,64.6,33.8,59.7,26.9z M66.1,33.5c0,0-8.5,0.5-8.9,5.8c-0.2,2.4,2.2,3.6,2.3,5.3c0.1,1.4-1.5,2.6-1.5,2.6s2.7-0.5,3.6-2.6
	c0.9-2.4-1.8-4-1.6-5.9C60.3,36.8,66.1,33.5,66.1,33.5z M68.2,45.7c-0.9,0-1.9,0.2-2.8,0.9c1.8-0.4,3.2,0.7,3.2,1.9
	c0,2.7-4,5.3-4,5.3s6.2-0.7,6.2-5.1C70.8,46.7,69.6,45.7,68.2,45.7z M52.8,45.7c0,0-7.8-0.1-7.8,2c0,2.2,10.2,2.4,17.5,1
	c0,0,1.9-1.3,2.5-1.8c-4.8,0.9-15.7,1.1-15.7,0.3C49.2,46.4,52.8,45.7,52.8,45.7z M50.9,49.8c-1.2,0-3,0.9-3,1.8
	c0,1.7,9,3.1,15.6,0.5l-2.3-1.4C56.7,52.2,48.4,51.7,50.9,49.8z M52,53.7c-1.6,0-2.7,1-2.7,1.7c0,2.2,9.8,2.5,13.6,0.2l-2.5-1.5
	C57.6,55.3,50.3,55.4,52,53.7z M46.5,55.7c-2.7-0.1-4.4,1.1-4.4,2.1c0,5.1,27.3,4.9,27.3-0.4c0-0.9-1.1-1.3-1.4-1.5
	c2.2,5-22.3,4.6-22.3,1.7c0-0.7,1.8-1.3,3.5-1l-1.4-0.8C47.3,55.8,46.9,55.7,46.5,55.7z M72.3,59.2C68.2,63,57.6,64.4,47.1,62
	C57.6,66.3,72.3,63.9,72.3,59.2z"/>
</svg>
