<?xml version="1.0" encoding="utf-8"?>
<!-- Generator: Adobe Illustrator 24.0.1, SVG Export Plug-In . SVG Version: 6.00 Build 0)  -->
<!DOCTYPE svg PUBLIC "-//W3C//DTD SVG 1.1//EN" "http://www.w3.org/Graphics/SVG/1.1/DTD/svg11.dtd" [
	<!ENTITY ns_extend "http://ns.adobe.com/Extensibility/1.0/">
	<!ENTITY ns_ai "http://ns.adobe.com/AdobeIllustrator/10.0/">
	<!ENTITY ns_graphs "http://ns.adobe.com/Graphs/1.0/">
	<!ENTITY ns_vars "http://ns.adobe.com/Variables/1.0/">
	<!ENTITY ns_imrep "http://ns.adobe.com/ImageReplacement/1.0/">
	<!ENTITY ns_sfw "http://ns.adobe.com/SaveForWeb/1.0/">
	<!ENTITY ns_custom "http://ns.adobe.com/GenericCustomNamespace/1.0/">
	<!ENTITY ns_adobe_xpath "http://ns.adobe.com/XPath/1.0/">
]>
<svg version="1.1" id="Layer_1" xmlns:x="&ns_extend;" xmlns:i="&ns_ai;" xmlns:graph="&ns_graphs;"
	 xmlns="http://www.w3.org/2000/svg" xmlns:xlink="http://www.w3.org/1999/xlink" x="0px" y="0px" viewBox="0 0 104 99"
	 style="enable-background:new 0 0 104 99;" xml:space="preserve">
<style type="text/css">
	.st0{fill:#D15443;}
	.st1{fill:#FF5347;}
	.st2{fill:#FFFFFF;}
</style>
<metadata>
	<sfw  xmlns="&ns_sfw;">
		<slices></slices>
		<sliceSourceBounds  bottomLeftOrigin="true" height="67" width="82" x="11" y="16"></sliceSourceBounds>
	</sfw>
</metadata>
<path class="st0" d="M21,16l5,10H11L21,16z"/>
<path class="st1" d="M21,16c0,4.4,0,8.8,0.1,13.1c0,7.7-0.2,15.5,0.2,23.2c0.1,2.2,0.3,4.4,0.5,6.6c0.2,1.4,0.3,3.3,1,4.5
	C25,67.3,52.6,83,57.1,83c1.9,0,7.7-2.7,14.1-6.1c5-2.7,10.3-5.9,14.3-8.5c3.1-2.1,5.3-3.8,5.9-4.8c0.6-1,1-3.8,1.3-7.4l0.3-5.4V16
	H21z"/>
<path class="st2" d="M50.1,50.6h-2.7L43,43c0.1,1.3,0.1,2.3,0.1,2.9v4.7h-1.9v-10h2.7l4.3,7.5c-0.1-1.3-0.1-2.2-0.1-2.8v-4.7H50
	L50.1,50.6L50.1,50.6z M58.4,50.6h-5.8v-10h5.8v1.7h-3.6v2.2h3.4v1.7h-3.4v2.6h3.6V50.6z M70.2,50.6h-2.4l-1.4-5.3
	c0-0.2-0.1-0.6-0.3-1.2c-0.1-0.6-0.2-1-0.2-1.2c0,0.2-0.1,0.6-0.2,1.2c-0.1,0.5-0.2,0.9-0.3,1.2l-1.3,5.2h-2.4l-2.6-10h2.1l1.3,5.5
	c0.2,1,0.4,1.9,0.5,2.6c0-0.3,0.1-0.7,0.2-1.2s0.2-1,0.3-1.3l1.5-5.6h2l1.5,5.6c0.1,0.3,0.1,0.6,0.2,1.1s0.2,1,0.2,1.3
	c0-0.4,0.1-0.8,0.2-1.3s0.2-1,0.3-1.3l1.3-5.5h2.1L70.2,50.6L70.2,50.6z"/>
</svg>
